<?xml version="1.0" encoding="UTF-8"?>
<svg width="1200pt" height="1200pt" version="1.1" viewBox="0 0 1200 1200" xmlns="http://www.w3.org/2000/svg">
 <path d="m142.2 552-112.2-192.96h64.441v-329.04h580.08v91.078h-492.72v237.96h64.441zm668.76-73.441h-104.76l193.8-448.56h77.641l192 449.04h-106.08l-39.957-98.641h-174zm72-182.16h108l-54.242-141.24zm-582.96 459.6h54.48v147.96c-12.824 6.4688-27.043 9.6836-41.402 9.3594-16.004-0.26562-31.641-4.8672-45.238-13.32-6.2695-5.4531-13.203-10.09-20.641-13.801 24.727-23.82 38.199-57.004 37.082-91.32 0-75.48-48-126.12-120-126.12v0.003907c-44.113-0.64453-85.242 22.203-108 60l-3.3594 5.6406 58.559 65.398 5.8789-11.281c3.6367-8.9336 9.8398-16.59 17.832-21.992 7.9883-5.4062 17.402-8.3164 27.047-8.3672 23.16 0 37.68 17.039 37.68 44.398 0 19.801-6.2383 53.039-48 53.039l-29.039 0.003906v89.281h41.762c35.16 0 52.922 15.84 52.922 47.16 0 25.68-12.961 53.039-49.199 53.039-41.762 0-64.559-36-70.559-48l-6-11.039-61.805 69.957 3.7188 5.6406c29.262 45.828 79.91 73.531 134.28 73.438 78.719 0 134.04-57.719 135.96-141 16.453 5.6875 34.254 6.1914 51 1.4414v174.48h88.441l-0.003906-414h84.602v414h88.441v-414h67.922l-0.003906-84h-384.36zm653.64 45.602h64.441l-0.003906 266.4h-291.84v102h379.2l0.003906-368.4h64.559l-112.32-216.84z"/>
</svg>
