<?xml version="1.0" encoding="iso-8859-1"?>
<!-- Uploaded to: SVG Repo, www.svgrepo.com, Generator: SVG Repo Mixer Tools -->
<!DOCTYPE svg PUBLIC "-//W3C//DTD SVG 1.1//EN" "http://www.w3.org/Graphics/SVG/1.1/DTD/svg11.dtd">
<svg fill="#000000" version="1.1" id="Capa_1" xmlns="http://www.w3.org/2000/svg" xmlns:xlink="http://www.w3.org/1999/xlink" 
	 width="800px" height="800px" viewBox="0 0 167.467 167.467"
	 xml:space="preserve">
<g>
	<g>
		<path d="M86.665,69.812c0.219-0.118-0.719-0.181-1.907-0.208L136.965,0h-35.021L83.732,24.285L65.522,0.006h-35.02l52.199,69.604
			c-1.18,0.021-2.118,0.096-1.893,0.208c-25.636,1.519-45.977,22.736-45.977,48.75c0,26.998,21.894,48.899,48.9,48.899
			c27.01,0,48.898-21.89,48.898-48.899C132.631,92.542,112.297,71.336,86.665,69.812z M102.162,80.148l2.101,0.84l1.883-1.247
			l-0.142,2.251l1.774,1.401l-2.199,0.562l-0.779,2.12l-1.21-1.905l-2.26-0.098l1.447-1.737L102.162,80.148z M82.73,75.763
			l1.002-2.03l1.005,2.03l2.24,0.323l-1.625,1.583l0.386,2.229l-2.006-1.048l-2.006,1.053l0.386-2.229l-1.625-1.578L82.73,75.763z
			 M61.32,79.741l1.887,1.261l2.101-0.843l-0.61,2.188l1.45,1.736l-2.263,0.087l-1.209,1.915l-0.784-2.12l-2.197-0.561l1.774-1.401
			L61.32,79.741z M47.177,96.296l1.4-1.783l0.561,2.199l2.124,0.788l-1.923,1.204l-0.088,2.266l-1.732-1.451l-2.19,0.619l0.84-2.101
			l-1.262-1.883L47.177,96.296z M41.259,121.795l-0.324-2.231l-2.028-1.007l2.033-1.007l0.325-2.232l1.587,1.62l2.229-0.384
			l-1.058,2.003l1.053,2.014l-2.225-0.394L41.259,121.795z M49.139,140.396l-0.565,2.205l-1.396-1.779l-2.265,0.148l1.26-1.894
			l-0.84-2.102l2.192,0.614l1.732-1.451l0.086,2.271l1.919,1.209L49.139,140.396z M65.303,156.958l-2.096-0.842l-1.887,1.266
			l0.145-2.272l-1.777-1.401l2.197-0.562l0.779-2.13l1.216,1.926l2.257,0.099l-1.445,1.718L65.303,156.958z M84.737,161.359
			l-1.005,2.023l-1.002-2.023l-2.243-0.33l1.625-1.575l-0.386-2.232l2.006,1.051l2.006-1.051l-0.386,2.228l1.625,1.58
			L84.737,161.359z M106.146,157.382l-1.883-1.266l-2.106,0.842l0.621-2.182l-1.457-1.735l2.26-0.094l1.209-1.92l0.79,2.129
			l2.194,0.552l-1.779,1.413L106.146,157.382z M83.732,153.577c-19.338,0-35.02-15.671-35.02-35.021
			c0-19.338,15.682-35.019,35.02-35.019c19.339,0,35.022,15.681,35.022,35.019C118.755,137.906,103.071,153.577,83.732,153.577z
			 M120.296,140.821l-1.4,1.779l-0.556-2.189l-2.131-0.787l1.921-1.216l0.088-2.26l1.733,1.445l2.185-0.619l-0.836,2.113
			l1.262,1.882L120.296,140.821z M126.206,115.306l0.328,2.244l2.025,1.007l-2.025,1.001l-0.328,2.25l-1.581-1.631l-2.228,0.394
			l1.046-2.014l-1.046-2.003l2.222,0.384L126.206,115.306z M122.551,96.143l-1.259,1.883l0.844,2.104l-2.177-0.615l-1.741,1.456
			l-0.099-2.266l-1.91-1.204l2.117-0.788l0.559-2.199l1.411,1.783L122.551,96.143z"/>
		<path d="M83.732,144.527c1.477,2.439,3.277,3.469,6.036,4.147c2.752,0.678,4.82,0.612,7.271-0.841
			C94.326,143.454,88.176,141.933,83.732,144.527z"/>
		<path d="M92.052,142.842c2.194,1.827,4.223,2.21,7.057,1.958c2.813-0.252,4.756-0.985,6.601-3.162
			C101.714,138.388,95.41,138.944,92.052,142.842z"/>
		<path d="M99.36,138.552c2.671,1.008,4.719,0.7,7.311-0.449c2.596-1.148,4.197-2.474,5.231-5.132
			C107.064,131.188,101.271,133.77,99.36,138.552z"/>
		<path d="M114.912,122.748c-5.154-0.109-9.772,4.214-10.034,9.356c2.862,0.088,4.704-0.875,6.774-2.802
			C113.719,127.366,114.797,125.594,114.912,122.748z"/>
		<path d="M108.012,124.214c2.722-0.842,4.164-2.347,5.478-4.848c1.33-2.507,1.778-4.53,0.952-7.261
			C109.538,113.675,106.573,119.268,108.012,124.214z"/>
		<path d="M112.008,109.364c0.443-2.791,0.187-4.86-1.474-7.17c-4.125,3.093-5.11,9.336-2.145,13.539
			C110.7,114.048,111.563,112.165,112.008,109.364z"/>
		<path d="M70.43,147.834c2.455,1.453,4.517,1.519,7.267,0.841c2.747-0.679,4.552-1.719,6.035-4.147
			C79.285,141.933,73.136,143.454,70.43,147.834z"/>
		<path d="M83.732,146.649c-2.449,0.755-3.955,3.524-3.271,5.998c1.367-0.411,2.085-1.149,2.763-2.386l0.509-1.368l0.515,1.368
			c0.675,1.236,1.396,1.98,2.758,2.386C87.694,150.174,86.182,147.404,83.732,146.649z"/>
		<path d="M61.757,141.638c1.831,2.183,3.782,2.917,6.6,3.162c2.832,0.252,4.86-0.131,7.057-1.958
			C72.055,138.944,65.746,138.388,61.757,141.638z"/>
		<path d="M68.095,138.552c-1.9-4.789-7.695-7.364-12.529-5.593c1.023,2.659,2.638,3.983,5.227,5.144
			C63.389,139.262,65.432,139.56,68.095,138.552z"/>
		<path d="M62.581,132.104c-0.251-5.143-4.869-9.466-10.024-9.356c0.107,2.846,1.182,4.618,3.261,6.555
			C57.881,131.235,59.721,132.192,62.581,132.104z"/>
		<path d="M59.453,124.214c1.428-4.936-1.523-10.539-6.432-12.108c-0.817,2.73-0.374,4.754,0.952,7.261
			C55.29,121.867,56.732,123.372,59.453,124.214z"/>
		<path d="M59.067,115.733c2.974-4.203,1.989-10.45-2.131-13.539c-1.667,2.31-1.915,4.379-1.471,7.17
			C55.902,112.165,56.77,114.048,59.067,115.733z"/>
		<path d="M95.705,128.154h-3.971c-1.162,0-1.961-0.099-2.394-0.295l-0.897-1.008c-0.112-0.263-0.169-1.061-0.169-2.401V93.538
			h-2.771c-0.979,0.471-2.033,0.876-3.166,1.216c-2.031,0.623-3.956,1.116-5.758,1.466c-1.212,0.246-2.937,0.481-5.202,0.706v5.488
			h7.913v22.041c0,1.294-0.096,2.151-0.292,2.556l-0.889,0.87c-0.395,0.188-1.294,0.273-2.706,0.273h-4.02v5.482h24.334v-5.482
			H95.705z"/>
	</g>
</g>
</svg>